<svg id="Capa_1" enable-background="new 0 0 512 512" height="512" viewBox="0 0 512 512" width="512" xmlns="http://www.w3.org/2000/svg"><g><g><path d="m408.77 128.979h-39.413c-15.247 0-27.606 12.36-27.606 27.606v17.683h94.626v-17.683c-.001-15.246-12.361-27.606-27.607-27.606z" fill="#b1abb5"/></g><g><path d="m408.733 128.979h-31.542c15.267 0 27.643 12.376 27.643 27.643v17.646h31.542v-17.646c0-15.266-12.376-27.643-27.643-27.643z" fill="#8f818f"/></g><g><path d="m447.207 504.49h-382.414c-22.63 0-40.975-18.345-40.975-40.975v-261.252c0-22.63 18.345-40.975 40.975-40.975h382.414c22.63 0 40.975 18.345 40.975 40.975v261.252c0 22.63-18.345 40.975-40.975 40.975z" fill="#fc840d"/></g><g><path d="m447.152 161.288h-23.386v237.757c0 22.66-18.37 41.03-41.03 41.03h-358.919v23.386c0 22.66 18.37 41.03 41.03 41.03h382.305c22.66 0 41.03-18.37 41.03-41.03v-261.143c0-22.661-18.37-41.03-41.03-41.03z" fill="#f16600"/></g><g><circle cx="389.063" cy="410.341" fill="#e0dde2" r="57.189"/></g><g><path d="m420.914 362.84c6.116 9.103 9.688 20.06 9.688 31.851 0 31.585-25.604 57.189-57.189 57.189-11.792 0-22.748-3.571-31.851-9.688 10.266 15.281 27.708 25.338 47.501 25.338 31.585 0 57.189-25.604 57.189-57.189 0-19.793-10.057-37.234-25.338-47.501z" fill="#b1abb5"/></g><g><circle cx="389.063" cy="410.341" fill="#b1abb5" r="21.011"/></g><g><path d="m395.154 390.235c.584 1.929.904 3.972.904 6.091 0 11.604-9.407 21.011-21.011 21.011-2.119 0-4.162-.32-6.091-.904 2.612 8.633 10.622 14.92 20.107 14.92 11.604 0 21.011-9.407 21.011-21.011 0-9.486-6.287-17.496-14.92-20.107z" fill="#8f818f"/></g><g><path d="m429.15 311.955h-346.3c-8.893 0-16.101-7.209-16.101-16.101v-58.176c0-8.893 7.209-16.101 16.101-16.101h346.3c8.893 0 16.101 7.209 16.101 16.101v58.176c0 8.892-7.209 16.101-16.101 16.101z" fill="#f0f0f3"/></g><g><path d="m429.128 221.576h-6.226v51.907c0 8.904-7.218 16.123-16.123 16.123h-340.031v6.226c0 8.904 7.218 16.123 16.123 16.123h346.257c8.904 0 16.123-7.218 16.123-16.123v-58.133c0-8.904-7.218-16.123-16.123-16.123z" fill="#e0dde2"/></g><g><circle cx="194.003" cy="23.735" fill="#8f818f" r="16.225"/></g><g><path d="m447.152 153.777h-3.391c-1.454-18.057-16.603-32.308-35.028-32.308h-37.156l-154.696-91.427c.555-2.01.857-4.123.857-6.307 0-13.088-10.647-23.735-23.735-23.735s-23.735 10.647-23.735 23.735 10.647 23.736 23.735 23.736c5.447 0 10.467-1.849 14.477-4.946l142.459 84.196c-9.252 5.731-15.653 15.63-16.573 27.057h-269.519c-26.765 0-48.54 21.775-48.54 48.54v261.142c0 26.765 21.775 48.54 48.54 48.54h62.699c4.148 0 7.51-3.362 7.51-7.51s-3.362-7.51-7.51-7.51h-62.699c-18.483 0-33.52-15.037-33.52-33.52v-261.143c0-18.483 15.037-33.52 33.52-33.52h382.305c18.483 0 33.52 15.038 33.52 33.52v261.143c0 18.484-15.038 33.52-33.52 33.52h-284.653c-4.148 0-7.51 3.362-7.51 7.51s3.362 7.51 7.51 7.51h284.653c26.765 0 48.54-21.775 48.54-48.54v-261.143c0-26.765-21.775-48.54-48.54-48.54zm-253.149-121.327c-4.806 0-8.715-3.909-8.715-8.716 0-4.805 3.909-8.715 8.715-8.715s8.715 3.909 8.715 8.715c0 4.807-3.909 8.716-8.715 8.716zm175.391 104.04h39.339c10.134 0 18.519 7.533 19.908 17.288h-79.156c1.39-9.756 9.775-17.288 19.909-17.288z"/><path d="m345.845 372.143c-3.436-2.32-8.105-1.418-10.427 2.019-7.231 10.704-11.054 23.214-11.054 36.179 0 35.675 29.024 64.699 64.699 64.699 35.674 0 64.698-29.024 64.698-64.699s-29.024-64.699-64.698-64.699c-8.205 0-16.203 1.517-23.772 4.509-3.858 1.524-5.748 5.888-4.223 9.744 1.525 3.857 5.887 5.747 9.744 4.223 5.804-2.294 11.944-3.457 18.251-3.457 27.393 0 49.678 22.286 49.678 49.679s-22.285 49.679-49.678 49.679-49.679-22.286-49.679-49.679c0-9.957 2.933-19.559 8.48-27.771 2.322-3.435 1.418-8.103-2.019-10.426z"/><path d="m417.584 410.342c0-15.727-12.794-28.521-28.52-28.521-15.727 0-28.521 12.794-28.521 28.521 0 15.726 12.794 28.52 28.521 28.52 15.726 0 28.52-12.794 28.52-28.52zm-42.022 0c0-7.444 6.057-13.501 13.501-13.501s13.5 6.057 13.5 13.501-6.056 13.5-13.5 13.5-13.501-6.056-13.501-13.5z"/><path d="m452.76 295.832v-58.133c0-13.031-10.601-23.633-23.632-23.633h-134.074c-4.148 0-7.51 3.362-7.51 7.51s3.362 7.51 7.51 7.51h134.074c4.749 0 8.612 3.864 8.612 8.613v58.133c0 4.749-3.864 8.613-8.612 8.613h-256.06v-52.453c0-4.148-3.362-7.51-7.51-7.51s-7.51 3.362-7.51 7.51v52.453h-75.177c-4.749 0-8.613-3.864-8.613-8.613v-58.133c0-4.749 3.864-8.613 8.613-8.613h176.775c4.148 0 7.51-3.362 7.51-7.51s-3.362-7.51-7.51-7.51h-176.775c-13.031 0-23.633 10.602-23.633 23.633v58.133c0 13.031 10.601 23.633 23.633 23.633h346.257c13.031 0 23.632-10.602 23.632-23.633z"/><path d="m65.998 394.4v42.056c0 4.148 3.362 7.51 7.51 7.51s7.51-3.362 7.51-7.51v-42.056c0-4.148-3.362-7.51-7.51-7.51s-7.51 3.361-7.51 7.51z"/><path d="m105.425 394.4v42.056c0 4.148 3.362 7.51 7.51 7.51s7.51-3.362 7.51-7.51v-42.056c0-4.148-3.362-7.51-7.51-7.51s-7.51 3.361-7.51 7.51z"/><path d="m159.872 436.455v-42.055c0-4.148-3.362-7.51-7.51-7.51s-7.51 3.362-7.51 7.51v42.056c0 4.148 3.362 7.51 7.51 7.51 4.148-.001 7.51-3.363 7.51-7.511z"/><path d="m184.28 394.4v42.056c0 4.148 3.362 7.51 7.51 7.51s7.51-3.362 7.51-7.51v-42.056c0-4.148-3.362-7.51-7.51-7.51s-7.51 3.361-7.51 7.51z"/></g></g></svg>