<svg viewBox="-61 0 512 512.001" xmlns="http://www.w3.org/2000/svg"><path d="m329.097656 491.902344-107.398437-304.703125c-3-7.800781-11.398438-11.699219-19.199219-9-3.300781 1.199219-5.699219 3.601562-7.5 6.300781-1.800781-2.699219-4.199219-5.101562-7.5-6.300781-7.800781-2.699219-16.199219 1.199219-19.199219 9l-107.398437 304.703125c-2.402344 6.597656.296875 14.097656 6 17.699218 2.398437 1.5 5.398437 2.398438 8.097656 2.398438 3.902344 0 7.800781-1.5 10.5-4.5l109.5-109.199219 109.5 109.199219c2.699219 3 6.601562 4.5 10.5 4.5 2.703125 0 5.699219-.902344 8.101562-2.402344 5.699219-3.597656 8.398438-11.097656 5.996094-17.695312zm-217.796875-52.5 32.699219-92.101563 29.699219 29.699219zm43.796875-123.304688 39.902344-113.898437 39.902344 113.898437-39.902344 39.601563zm61.203125 60.902344 29.699219-29.699219 32.699219 92.097657zm0 0" fill="#68544f"/><path d="m329.097656 491.902344-107.398437-304.703125c-3-7.800781-11.398438-11.699219-19.199219-9-3.300781 1.199219-5.699219 3.601562-7.5 6.300781v17.699219l39.902344 113.898437-39.902344 39.601563v42.601562l109.5 109.199219c2.699219 3 6.601562 4.5 10.5 4.5 2.703125 0 5.699219-.902344 8.101562-2.402344 5.699219-3.597656 8.398438-11.097656 5.996094-17.695312zm-112.796875-114.902344 29.699219-29.699219 32.699219 92.097657zm0 0" fill="#53433f"/><g fill="#ffd400"><path d="m347.101562 229.199219c-3.300781 7.5-12.300781 11.101562-19.800781 7.800781-7.5-3-11.101562-12-7.800781-19.5 37.199219-88.5-27.902344-187.5-124.5-187.5-96.300781 0-162 98.699219-124.5 187.5 3.300781 7.5-.296875 16.5-7.796875 19.5-7.5 3.300781-16.503906-.300781-19.800781-7.800781-45.902344-108.597657 34.5-229.199219 152.097656-229.199219 117.902344 0 197.703125 120.902344 152.101562 229.199219zm0 0"/><path d="m291.597656 205.800781c-2.996094 7.800781-11.996094 11.097657-19.496094 8.101563-7.800781-3.300782-11.101562-12.003906-8.101562-19.800782 21-49.199218-15.597656-104.101562-69-104.101562-54.597656 0-89.699219 55.800781-69 104.097656 3 7.800782-.300781 16.503906-8.101562 19.800782-7.5 3-16.5-.296876-19.496094-8.097657-29.402344-68.699219 21.597656-145.800781 96.597656-145.800781s126 76.800781 96.597656 145.800781zm0 0"/><path d="m195 120c-24.902344 0-45 20.097656-45 45s20.097656 45 45 45 45-20.097656 45-45-20.097656-45-45-45zm0 0"/></g><path d="m390 497c0 8.402344-6.597656 15-15 15h-360c-8.402344 0-15-6.597656-15-15s6.597656-15 15-15h360c8.402344 0 15 6.597656 15 15zm0 0" fill="#a8d32a"/><path d="m195 210v-90c24.902344 0 45 20.097656 45 45s-20.097656 45-45 45zm0 0" fill="#fdbf00"/><path d="m195 90v-30c75 0 126 76.800781 96.597656 145.800781-2.996094 7.800781-11.996094 11.097657-19.496094 8.101563-7.800781-3.300782-11.101562-12.003906-8.101562-19.800782 21-49.199218-15.597656-104.101562-69-104.101562zm0 0" fill="#fdbf00"/><path d="m195 30v-30c117.902344 0 197.703125 120.902344 152.101562 229.199219-3.300781 7.5-12.300781 11.101562-19.800781 7.800781-7.5-3-11.101562-12-7.800781-19.5 37.199219-88.5-27.902344-187.5-124.5-187.5zm0 0" fill="#fdbf00"/><path d="m390 497c0 8.402344-6.597656 15-15 15h-180v-30h180c8.402344 0 15 6.597656 15 15zm0 0" fill="#93bf00"/></svg>